<?xml version="1.0" encoding="utf-8"?>
<!-- Generator: Adobe Illustrator 22.1.0, SVG Export Plug-In . SVG Version: 6.00 Build 0)  -->
<svg version="1.1" id="Layer_1" xmlns="http://www.w3.org/2000/svg" xmlns:xlink="http://www.w3.org/1999/xlink" x="0px" y="0px"
	 viewBox="0 0 721 847" style="enable-background:new 0 0 721 847;" xml:space="preserve">
<style type="text/css">
	.st0{opacity:0.8;clip-path:url(#SVGID_2_);}
	.st1{fill:#808080;}
</style>
<g>
	<defs>
		<polygon id="SVGID_1_" points="719.6,1 0,1 -0.4,848 719.6,848 		"/>
	</defs>
	<clipPath id="SVGID_2_">
		<use xlink:href="#SVGID_1_"  style="overflow:visible;"/>
	</clipPath>
	<g class="st0">
		<g>
			<path class="st1" d="M102.3,449.3c-64.3-0.9-128.5-22-180.7-59.5c-51.3-36.9-90.9-91.7-99.2-155.4c-2.3-17.3-1.9-35.4,3.4-52.1
				c5.7-18,17.6-31.8,34.1-40.9c18-10,38.4-16.2,57.7-23.4c21-7.9,41.9-15.9,62.9-23.8c9.9-3.8,19.9-8.3,30.4-10.1
				c11.5-1.9,21.9,1.1,30.5,8.9c6.9,6.2,12.1,13.9,17.4,21.5c5.1,7.2,10.2,14.5,15.3,21.7c20.3,28.7,40.9,57.3,64,83.9
				c43.1,49.7,97.5,93.9,164,105.4c58.7,10.2,121.5-3.8,170.6-37.4c48.6-33.2,81-85.1,85.2-144.1c4.1-56.2-15.6-114.5-53.6-156.2
				c-18.7-20.5-42.5-37.3-68.9-46.4c-22.7-7.8-61.3-8.4-67.2,21.9c-3.1,16.4,7,32,17.2,43.8c12.5,14.3,27.5,26.8,42,39
				c29.8,25,61.6,47.6,95.2,67.2c17,10,34.4,19.2,52.1,27.7c17.2,8.2,35.9,14.5,52,24.7c31.1,19.8,39.1,61.1,42.4,95.4
				c6,61.8-10.2,124.6-41.6,177.9c-31.3,53.1-78.2,97.5-134.8,122.4c-34.3,15-70.8,19.4-107.2,26.6c-35.1,7-70.4,19-94,47.3
				c-19.1,22.8-25.3,53.5-12,80.8c12.9,26.3,39.5,43.6,65,56.1c33.8,16.6,70.7,27,106.2,39.2c21.2,7.3,42.3,14.6,63.5,21.8
				c16.9,5.8,34.8,11.2,52.9,10.5c14.9-0.5,29.3-6,39.5-17.1c8-8.7,12.3-19.8,14.5-31.2c5.1-27,0.7-54.9,2.5-82.2
				c0.9-13.7,3.4-27.8,10.1-39.9c8.4-15.1,22.8-24.6,38.7-30.3c16.4-5.9,33.6-8.5,50.5-12.7c16.3-4.1,32.4-9.4,47.8-16.2
				c30.7-13.5,59.3-33.2,79-60.7c17.3-24.1,25.4-53.4,23-83c-2.2-27.3-13.5-54.6-35.2-71.9c-5.6-4.5-11.6-8-18-11.1
				c-7.3-3.5-15.2-6.8-21.2-12.4c-16.8-15.8-3.1-42,3-59.8c14.2-41.5,28.5-83,42.7-124.6c0.2-0.6-0.1-1.4-0.7-1.7
				c-53.1-22.9-111.6-11.4-162,12.8c-55.7,26.8-102.8,68.3-147,110.8c-47,45.3-90.9,93.7-137.3,139.6
				c-44,43.5-90.5,84.7-142.9,117.9c-50.6,32.1-106.7,56.7-166.3,65.4c-7.7,1.1-15.5,2-23.3,2.6c-1.9,0.1-2,3,0,3
				c44.8-0.3,69.1,45.4,83.1,81.8c7.5,19.4,12.6,39.6,21.4,58.5c8.7,18.8,20.1,37.3,35.7,51.2c15.7,14,35.4,21.3,56.3,16.8
				c1.9-0.4,1.1-3.3-0.8-2.9c-45.1,9.6-75.5-36.5-91-72c-8.5-19.7-13.6-40.6-21.9-60.4c-7.5-17.9-16.6-35.7-29.6-50.3
				c-13.8-15.6-32.1-25.9-53.3-25.7c0,1,0,2,0,3c58.2-4.4,113.9-24.2,164.6-52.5c52.2-29.2,99.1-66.8,142.6-107.7
				c47.1-44.3,90.7-92.1,136.2-138c44.2-44.6,90.5-89.5,144.6-122c49.4-29.8,110-51.8,167.9-36.7c7.3,1.9,14.4,4.4,21.4,7.4
				c-0.2-0.6-0.5-1.1-0.7-1.7c-14.5,42.2-28.9,84.3-43.4,126.5c-5.5,16.1-16.3,37.3-7,53.9c7.4,13.2,23.8,17.1,36,24.3
				c25.7,15.3,39.8,44.1,42.8,73.2c3.2,30.5-5.2,60.7-23.3,85.4c-20.9,28.5-51.6,48.3-84,61.3c-16,6.4-32.5,11.3-49.3,15.1
				c-16.2,3.6-32.8,6.6-48.1,13.2c-13.6,5.9-25.6,15-33.1,28c-6.3,10.8-9.1,23.2-10.5,35.6c-3,27.8,1.7,56-2.2,83.7
				c-1.7,12.1-5.5,24.3-13.8,33.7c-11.7,13.3-29.1,18-46.3,16.9c-19.4-1.2-38-8.2-56.2-14.5c-21-7.2-41.9-14.4-62.9-21.6
				c-34.6-11.9-70.5-22.1-102.8-39.5c-25.5-13.7-51.9-33.7-59.7-63.1c-9.1-34.4,11.6-66.3,39.2-85.2c32.8-22.4,73.6-26.3,111.7-33.4
				c31.7-5.9,61.9-15.6,90.1-31.5c25.9-14.6,49.4-33.5,69.8-55.2c41-43.8,69.7-99.5,80.4-158.5c5.3-28.9,6.2-58.6,2.2-87.8
				c-4.4-32.1-13.1-68.1-41.9-86.8c-15.8-10.2-34.2-16.4-51.1-24.4c-17.5-8.3-34.7-17.3-51.4-27.1c-34.2-19.9-66.6-42.7-96.9-68.1
				c-14.3-12-29.1-24.3-41.4-38.4c-12.1-13.7-24.7-34.7-12.6-52.2c8.7-12.6,25.8-14.7,39.8-13.3c14.9,1.5,29,7.4,42.1,14.5
				c50.9,27.8,84.1,81.3,94.5,137.5c10.8,59-4.9,119.5-46,163.6c-41.4,44.4-102.1,69.2-162.4,70.1c-31.3,0.5-62.4-5.7-91-18.5
				c-31.5-14.2-59.4-35-84.1-59c-25.3-24.6-47.4-52.2-68.3-80.6c-10.4-14.1-20.5-28.4-30.6-42.8c-9.2-13.1-17.9-28.8-31.4-38
				c-16.5-11.3-35.1-4.4-52,2c-20.6,7.8-41.3,15.6-61.9,23.5c-18.8,7.1-38,13.5-56.3,21.8c-15.6,7.1-29.7,16.9-38.4,31.9
				c-16.1,27.7-13.3,63-5.6,92.9c7.4,29,21.3,56,39.5,79.6c37.4,48.4,91.9,82.2,150,100c28.7,8.8,58.7,13.6,88.7,14
				C104.3,452.3,104.3,449.3,102.3,449.3L102.3,449.3z"/>
		</g>
	</g>
</g>
</svg>
